<?xml version="1.0" encoding="iso-8859-1"?>
<!-- Uploaded to: SVG Repo, www.svgrepo.com, Generator: SVG Repo Mixer Tools -->
<svg fill="#000000" height="800px" width="800px" version="1.1" id="Layer_1" xmlns="http://www.w3.org/2000/svg" xmlns:xlink="http://www.w3.org/1999/xlink" 
	 viewBox="0 0 512 512" xml:space="preserve">
<g>
	<g>
		<path d="M506.914,249.068l-23.316-7.334c-47.012-14.788-97.173-24.857-148.701-29.954c21.53-24.096,41.773-48.3,60.035-71.863
			l22.005-28.394c3.62-4.671,3.201-11.306-0.977-15.484c-4.178-4.178-10.81-4.595-15.484-0.977l-28.393,22.006
			c-23.563,18.262-47.766,38.505-71.863,60.035c-5.097-51.528-15.165-101.689-29.954-148.701l-7.334-23.316
			c-2.133-6.781-11.73-6.781-13.863,0l-7.334,23.316c-14.789,47.013-24.857,97.174-29.954,148.701
			c-24.097-21.53-48.3-41.773-71.863-60.035l-28.393-22.006c-4.671-3.618-11.306-3.201-15.484,0.977
			c-4.179,4.179-4.597,10.813-0.977,15.484l22.006,28.394c18.261,23.562,38.505,47.766,60.034,71.863
			c-51.528,5.097-101.689,15.165-148.701,29.954l-23.316,7.334c-6.781,2.133-6.781,11.73,0,13.863l23.316,7.334
			c47.012,14.788,97.173,24.857,148.701,29.954c-21.53,24.096-41.773,48.3-60.035,71.863l-22.005,28.394
			c-3.62,4.671-3.201,11.306,0.977,15.484c2.275,2.275,5.28,3.436,8.3,3.436c2.524,0,5.057-0.811,7.184-2.459l28.393-22.006
			c23.563-18.262,47.766-38.504,71.863-60.035c5.097,51.528,15.165,101.689,29.954,148.701l7.334,23.316
			c2.133,6.782,11.73,6.782,13.863,0l7.334-23.316c14.789-47.013,24.857-97.174,29.954-148.701
			c24.097,21.53,48.3,41.773,71.863,60.035l28.393,22.006c2.127,1.647,4.66,2.459,7.184,2.459c3.019,0,6.024-1.16,8.3-3.436
			c4.179-4.179,4.597-10.813,0.977-15.484l-22.006-28.394c-18.261-23.562-38.504-47.766-60.034-71.863
			c51.528-5.097,101.689-15.165,148.701-29.954l23.316-7.334C513.695,260.799,513.695,251.203,506.914,249.068z M255.999,331.038
			c-41.377,0-75.038-33.661-75.038-75.038s33.661-75.038,75.038-75.038s75.038,33.661,75.038,75.038
			S297.376,331.038,255.999,331.038z"/>
	</g>
</g>
<g>
	<g>
		<path d="M255.999,204.428c-28.437,0-51.572,23.136-51.572,51.572c0,28.437,23.136,51.572,51.572,51.572
			c28.437,0,51.572-23.135,51.572-51.572C307.572,227.563,284.436,204.428,255.999,204.428z"/>
	</g>
</g>
</svg>